Coordinates
version=1
nRows=17
nColumns=24
inDegrees=yes

Units are S.I. units (second, meters, Newtons, ...)
Angles are in degrees.

endheader
time	pelvis_tilt	pelvis_list	pelvis_rotation	pelvis_tx	pelvis_ty	pelvis_tz	hip_flexion_r	hip_adduction_r	hip_rotation_r	knee_angle_r	ankle_angle_r	subtalar_angle_r	mtp_angle_r	hip_flexion_l	hip_adduction_l	hip_rotation_l	knee_angle_l	ankle_angle_l	subtalar_angle_l	mtp_angle_l	lumbar_extension	lumbar_bending	lumbar_rotation
      3.26500000	    -10.87361042	      5.14150271	     -1.54097251	     -2.05416308	     -0.01395596	     -0.69580831	     20.94785090	     -6.96126966	     -2.22863871	    -65.49361282	    -22.97692978	    -17.97605757	      2.20049638	     25.05397712	      6.67912831	    -11.44439881	    -19.59514270	      1.29625925	     -8.90710017	      2.89500438	      7.87690329	     -6.68519511	     -1.48598322
      3.27000000	    -10.88840094	      5.09425552	     -1.47290179	     -2.04861119	     -0.01311190	     -0.69648554	     21.91133519	     -6.84547033	     -2.13655761	    -66.30089210	    -21.98804842	    -17.83873944	      2.79492981	     24.49996568	      6.76027724	    -11.32611434	    -19.22629854	      1.39031268	     -8.91227421	      3.19031151	      7.84342790	     -6.63660367	     -1.69439556
      3.27500000	    -10.93283089	      5.02683290	     -1.47988297	     -2.04307051	     -0.01227067	     -0.69710175	     22.91087554	     -6.67117416	     -1.98104395	    -66.99179862	    -21.13878639	    -17.80109834	      3.74118079	     23.95401170	      6.79914417	    -11.19214885	    -18.81054827	      1.45315540	     -9.01049433	      3.53362602	      7.85604546	     -6.54168498	     -1.77495114
      3.28000000	    -10.90541906	      4.93846417	     -1.38311524	     -2.03750488	     -0.01136482	     -0.69780407	     23.77405399	     -6.53251965	     -1.98545053	    -67.59007390	    -20.13058033	    -17.65066854	      4.16343715	     23.34227499	      6.84481676	    -11.06501609	    -18.44107497	      1.67021526	     -8.87277565	      3.60728966	      7.77980947	     -6.45173879	     -2.00313062
      3.28500000	    -10.90547534	      4.86413809	     -1.34069450	     -2.03194882	     -0.01049411	     -0.69846052	     24.67077207	     -6.37923486	     -1.91824157	    -68.10831171	    -19.13691742	    -17.43699289	      4.63610704	     22.74205734	      6.88980552	    -10.94119460	    -18.03271831	      1.85267919	     -8.80904713	      3.61817254	      7.74451152	     -6.35960964	     -2.14267833
      3.29000000	    -10.89869884	      4.79791909	     -1.28227357	     -2.02636088	     -0.00964925	     -0.69916324	     25.53941460	     -6.25474465	     -1.88929962	    -68.53939283	    -18.19672659	    -17.23954671	      5.09098394	     22.12105439	      6.95292595	    -10.80048389	    -17.60348066	      2.05692575	     -8.73841542	      3.60827637	      7.70891566	     -6.27148140	     -2.29440126
      3.29500000	    -10.88439190	      4.73016845	     -1.22177167	     -2.02077465	     -0.00878195	     -0.69982175	     26.36678021	     -6.11775811	     -1.85342443	    -68.86304185	    -17.26501357	    -17.04461323	      5.59033653	     21.48886427	      7.00836446	    -10.68010817	    -17.16490770	      2.19886660	     -8.66786499	      3.54044133	      7.66612590	     -6.18878643	     -2.45158424
      3.30000000	    -10.84373375	      4.67747937	     -1.18375821	     -2.01517934	     -0.00792867	     -0.70051013	     27.15316261	     -5.99902356	     -1.80183249	    -69.09092186	    -16.46233822	    -16.91331114	      6.32149795	     20.80492538	      7.08724752	    -10.50991178	    -16.68840611	      2.37548944	     -8.65557145	      3.32647243	      7.59936682	     -6.10450319	     -2.55651050
      3.30500000	    -10.80735503	      4.61225295	     -1.05409709	     -2.00949288	     -0.00711800	     -0.70126269	     27.89501889	     -5.92913884	     -1.90733496	    -69.24126656	    -15.67200511	    -16.86925883	      6.56336112	     20.12648244	      7.16388490	    -10.36777971	    -16.22329301	      2.58405263	     -8.47561186	      3.33590084	      7.54855165	     -6.02974726	     -2.77486368
      3.31000000	    -10.74205896	      4.54404506	     -0.94543078	     -2.00379863	     -0.00628793	     -0.70197770	     28.57425773	     -5.83639623	     -1.96255830	    -69.29334538	    -14.85946042	    -16.72990733	      6.81175031	     19.40331275	      7.23019309	    -10.23309701	    -15.73146790	      2.76060146	     -8.33280809	      3.32245085	      7.46675535	     -5.94596429	     -2.96304092
      3.31500000	    -10.64480438	      4.47906874	     -0.82363478	     -1.99806026	     -0.00543086	     -0.70269073	     29.17853394	     -5.75687625	     -2.03849845	    -69.24247503	    -14.09031784	    -16.64457765	      7.02803831	     18.63245388	      7.30133409	    -10.10021995	    -15.21796429	      2.89906950	     -8.18449985	      3.29503772	      7.35778802	     -5.86922615	     -3.16640620
      3.32000000	    -10.52992546	      4.41052660	     -0.69174538	     -1.99227704	     -0.00460700	     -0.70344217	     29.73407640	     -5.69706038	     -2.15492968	    -69.10682233	    -13.38435257	    -16.62692062	      7.18726571	     17.83059771	      7.37135505	     -9.95103961	    -14.69004402	      3.05862042	     -8.02534073	      3.28950160	      7.23815039	     -5.78544085	     -3.37634140
      3.32500000	    -10.40018920	      4.33933435	     -0.54279499	     -1.98647404	     -0.00379949	     -0.70419750	     30.23778471	     -5.64749703	     -2.29679675	    -68.87947696	    -12.71268612	    -16.65108657	      7.29610510	     17.00660468	      7.43774964	     -9.79665110	    -14.15317110	      3.21284710	     -7.84247488	      3.30580405	      7.10388734	     -5.70095981	     -3.59865200
      3.33000000	    -10.24454491	      4.25648836	     -0.38628252	     -1.98064304	     -0.00299338	     -0.70497564	     30.67559654	     -5.59759772	     -2.45832844	    -68.55635612	    -12.07691704	    -16.71011730	      7.35559524	     16.14533613	      7.49050798	     -9.64084739	    -13.60239970	      3.36396174	     -7.64908830	      3.34283696	      6.94690885	     -5.60035302	     -3.82353468
      3.33500000	    -10.09704181	      4.17972025	     -0.22100303	     -1.97481585	     -0.00225184	     -0.70574506	     31.09762849	     -5.56661374	     -2.63977451	    -68.15629948	    -11.47291165	    -16.81459869	      7.37876332	     15.29497616	      7.54319241	     -9.48548760	    -13.05553877	      3.51239158	     -7.43533015	      3.40107820	      6.79849519	     -5.51065476	     -4.05855171
      3.34000000	     -9.91659182	      4.07779571	     -0.06953632	     -1.96896844	     -0.00149498	     -0.70651939	     31.44525428	     -5.50614300	     -2.82116139	    -67.65226823	    -10.91026320	    -16.94850140	      7.33763871	     14.39846226	      7.56222787	     -9.32767221	    -12.49157493	      3.65795321	     -7.22175313	      3.49273999	      6.61951960	     -5.38192427	     -4.26010292
      3.34500000	     -9.76884724	      3.98738075	      0.11022831	     -1.96315184	     -0.00084292	     -0.70732526	     31.80455253	     -5.48207287	     -3.02816415	    -67.07949637	    -10.36069698	    -17.09376680	      7.29127897	     13.55151396	      7.59174973	     -9.17314768	    -11.94831417	      3.80141176	     -6.98208215	      3.59590795	      6.47013029	     -5.26815078	     -4.50272704
